<svg xmlns="http://www.w3.org/2000/svg" viewBox="0 0 750 500" width="750" height="500" preserveAspectRatio="xMidYMid meet" style="width: 100%; height: 100%; transform: translate3d(0px, 0px, 0px);"><defs><clipPath id="__lottie_element_15"><rect width="750" height="500" x="0" y="0"></rect></clipPath></defs><g clip-path="url(#__lottie_element_15)"><g style="display: none;" transform="matrix(1,0,0,1,375,250)" opacity="0.0028421052631578347"><g opacity="1" transform="matrix(1.044029951095581,0,0,1.0511599779129028,1,3)"><path fill="rgb(255,51,0)" fill-opacity="1" d=" M316,-16 C316,-16 316,16 316,16 C316,124.72429656982422 227.72430419921875,213 119,213 C119,213 -119,213 -119,213 C-227.72430419921875,213 -316,124.72429656982422 -316,16 C-316,16 -316,-16 -316,-16 C-316,-124.72429656982422 -227.72430419921875,-213 -119,-213 C-119,-213 119,-213 119,-213 C227.72430419921875,-213 316,-124.72429656982422 316,-16z"></path></g></g><g transform="matrix(17.77907943725586,0,0,17.77907943725586,-8965.9677734375,-57115.46484375)" opacity="1" style="display: block;"><g opacity="1" transform="matrix(1,0,0,1,525.3909912109375,3226.571044921875)"><path fill="rgb(0,0,0)" fill-opacity="1" d=" M6.173999786376953,-13.255000114440918 C6.173999786376953,-13.255000114440918 -6.173999786376953,-13.255000114440918 -6.173999786376953,-13.255000114440918 C-13.482999801635742,-13.255000114440918 -19.429000854492188,-7.309000015258789 -19.429000854492188,0 C-19.429000854492188,7.309000015258789 -13.482999801635742,13.255000114440918 -6.173999786376953,13.255000114440918 C-6.173999786376953,13.255000114440918 6.173999786376953,13.255000114440918 6.173999786376953,13.255000114440918 C13.482999801635742,13.255000114440918 19.429000854492188,7.309000015258789 19.429000854492188,0 C19.429000854492188,-7.309000015258789 13.482999801635742,-13.255000114440918 6.173999786376953,-13.255000114440918z M6.173999786376953,11.911999702453613 C6.173999786376953,11.911999702453613 -6.173999786376953,11.911999702453613 -6.173999786376953,11.911999702453613 C-12.741999626159668,11.911999702453613 -18.086999893188477,6.567999839782715 -18.086999893188477,0 C-18.086999893188477,-6.567999839782715 -12.741999626159668,-11.911999702453613 -6.173999786376953,-11.911999702453613 C-6.173999786376953,-11.911999702453613 6.173999786376953,-11.911999702453613 6.173999786376953,-11.911999702453613 C12.741999626159668,-11.911999702453613 18.086999893188477,-6.567999839782715 18.086999893188477,0 C18.086999893188477,6.567999839782715 12.741999626159668,11.911999702453613 6.173999786376953,11.911999702453613z"></path></g><g opacity="1" transform="matrix(1,0,0,1,525.6309814453125,3226.571044921875)"><path fill="rgb(0,0,0)" fill-opacity="1" d=" M9.088000297546387,-6.743000030517578 C8.854999542236328,-7.031000137329102 8.432000160217285,-7.074999809265137 8.144000053405762,-6.8420000076293945 C7.85699987411499,-6.609000205993652 7.810999870300293,-6.185999870300293 8.043999671936035,-5.8979997634887695 C8.043999671936035,-5.8979997634887695 12.27299976348877,-0.6710000038146973 12.27299976348877,-0.6710000038146973 C12.27299976348877,-0.6710000038146973 -13.678999900817871,-0.6710000038146973 -13.678999900817871,-0.6710000038146973 C-14.050000190734863,-0.6710000038146973 -14.35099983215332,-0.3709999918937683 -14.35099983215332,0 C-14.35099983215332,0.3709999918937683 -14.050000190734863,0.671999990940094 -13.678999900817871,0.671999990940094 C-13.678999900817871,0.671999990940094 12.27299976348877,0.671999990940094 12.27299976348877,0.671999990940094 C12.27299976348877,0.671999990940094 8.043999671936035,5.8979997634887695 8.043999671936035,5.8979997634887695 C7.810999870300293,6.185999870300293 7.85699987411499,6.609000205993652 8.144000053405762,6.8420000076293945 C8.432000160217285,7.074999809265137 8.854999542236328,7.031000137329102 9.088000297546387,6.742000102996826 C9.088000297546387,6.742000102996826 14.201000213623047,0.421999990940094 14.201000213623047,0.421999990940094 C14.300999641418457,0.29899999499320984 14.35099983215332,0.15000000596046448 14.35099983215332,0 C14.35099983215332,-0.14900000393390656 14.300999641418457,-0.29899999499320984 14.201000213623047,-0.421999990940094 C14.201000213623047,-0.421999990940094 9.088000297546387,-6.743000030517578 9.088000297546387,-6.743000030517578z"></path></g></g></g></svg>