<svg width="500" height="500" viewBox="0 0 500 500" fill="none" xmlns="http://www.w3.org/2000/svg">
<path d="M462 250.5C462 367.861 366.861 463 249.5 463C132.139 463 37 367.861 37 250.5C37 133.139 132.139 38 249.5 38C366.861 38 462 133.139 462 250.5Z" fill="white"/>
<path d="M364.701 107.5C363.701 107.5 363.001 107.9 362.401 108.6C361.801 109.4 361.501 110.3 361.601 111.4C361.701 112.5 362.301 113.5 363.401 114.5C364.201 115.2 365.101 115.7 366.101 116C367.101 116.3 368.101 116.4 369.101 116.3C370.101 116.2 371.101 115.9 372.001 115.4C372.901 114.9 373.801 114.2 374.501 113.4L375.101 112.7L368.101 108.5C366.801 107.8 365.701 107.4 364.701 107.5Z" fill="#28104E"/>
<path d="M286 429.2C285.4 428.2 284.7 427.4 283.8 426.7C282.9 426 281.9 425.6 280.8 425.3C279.7 425 278.5 425 277.3 425.2C276.1 425.4 275 425.8 274 426.4C273 427 272.2 427.7 271.6 428.6C271 429.5 270.5 430.5 270.2 431.7C269.9 432.8 269.9 434.1 270.1 435.4C270.3 436.7 270.7 437.8 271.3 438.8C271.9 439.8 272.6 440.6 273.5 441.3C274.4 442 275.4 442.4 276.5 442.7C277.6 443 278.8 443 280 442.8C281.2 442.6 282.3 442.2 283.3 441.6C284.3 441 285.1 440.3 285.7 439.4C286.3 438.5 286.8 437.5 287.1 436.3C287.4 435.2 287.4 433.9 287.2 432.6C287 431.4 286.6 430.2 286 429.2Z" fill="#28104E"/>
<path d="M165.2 93.5C165.9 92.6 166.4 91.6 166.7 90.6C167 89.5 167 88.4 166.9 87.3C166.7 86.1 166.3 85 165.7 83.8C165.1 82.7 164.3 81.7 163.4 81C162.5 80.3 161.5 79.7 160.4 79.4C159.3 79.1 158.3 79 157.1 79.1C156 79.2 154.9 79.6 153.8 80.2C152.7 80.8 151.8 81.6 151.1 82.5C150.4 83.4 149.9 84.4 149.6 85.4C149.3 86.5 149.3 87.6 149.4 88.7C149.6 89.9 150 91 150.6 92.2C151.2 93.3 152 94.3 152.9 95C153.8 95.7 154.8 96.3 155.9 96.6C157 96.9 158 97 159.2 96.9C160.3 96.8 161.4 96.4 162.5 95.8C163.6 95.1 164.5 94.4 165.2 93.5Z" fill="#28104E"/>
<path d="M287.8 74.0997C288.4 74.9997 289.1 75.8997 290 76.5997C290.9 77.2997 292 77.7997 293.2 78.0997C294.4 78.3997 295.5 78.4997 296.7 78.2997C297.8 78.0997 298.9 77.7997 299.8 77.1997C300.7 76.5997 301.5 75.8997 302.2 74.8997C302.9 73.8997 303.4 72.7997 303.7 71.5997C304 70.2997 304.1 69.0997 303.9 67.9997C303.7 66.7997 303.4 65.7997 302.8 64.7997C302.2 63.8997 301.5 62.9997 300.6 62.2997C299.7 61.5997 298.6 61.0997 297.4 60.7997C296.2 60.4997 295.1 60.3997 293.9 60.5997C292.8 60.7997 291.7 61.0997 290.8 61.6997C289.9 62.2997 289 62.9997 288.4 63.9997C287.7 64.9997 287.2 66.0997 286.9 67.2997C286.6 68.5997 286.5 69.7997 286.7 70.8997C286.9 72.0997 287.3 73.0997 287.8 74.0997Z" fill="#28104E"/>
<path d="M228.4 71.3999C229 70.4999 229.5 69.4999 229.8 68.2999C230.1 67.1999 230.1 65.8999 229.9 64.5999C229.7 63.2999 229.3 62.1999 228.7 61.1999C228.1 60.1999 227.4 59.3999 226.5 58.6999C225.6 57.9999 224.6 57.5999 223.5 57.2999C222.4 56.9999 221.2 56.9999 220 57.1999C218.8 57.3999 217.7 57.7999 216.7 58.3999C215.7 58.9999 214.9 59.6999 214.3 60.5999C213.7 61.4999 213.2 62.4999 212.9 63.6999C212.6 64.7999 212.6 66.0999 212.8 67.3999C213 68.6999 213.4 69.7999 214 70.7999C214.6 71.7999 215.3 72.5999 216.2 73.2999C217.1 73.9999 218.1 74.3999 219.2 74.6999C220.3 74.9999 221.5 74.9999 222.7 74.7999C223.9 74.5999 225 74.1999 226 73.5999C227 72.9999 227.8 72.2999 228.4 71.3999Z" fill="#28104E"/>
<path d="M250.001 25.2002C125.901 25.2002 25.2012 125.9 25.2012 250C25.2012 374.1 125.901 474.8 250.001 474.8C374.101 474.8 474.801 374.2 474.801 250C474.801 125.8 374.101 25.2002 250.001 25.2002ZM394.901 117.1C396.701 117.3 398.501 117.8 400.101 118.6C401.801 119.4 403.301 120.7 404.601 122.2C405.801 123.7 406.701 125.2 407.201 126.7C407.701 128.2 408.001 129.5 408.001 130.7C408.101 132.1 408.001 133.4 407.801 134.6L402.301 133.9C402.501 133 402.501 132.2 402.501 131.3C402.401 130.5 402.301 129.6 402.001 128.7C401.701 127.7 401.201 126.8 400.401 125.9C399.601 125 398.701 124.2 397.701 123.7C396.701 123.2 395.601 122.9 394.501 122.8C393.401 122.7 392.301 122.9 391.201 123.2C390.101 123.6 389.001 124.2 388.001 125C387.001 125.8 386.201 126.8 385.701 127.8C385.201 128.8 384.801 129.9 384.701 131C384.601 132.1 384.701 133.2 385.101 134.3C385.401 135.4 386.001 136.4 386.801 137.3C387.601 138.2 388.401 139 389.401 139.4C390.301 139.9 391.201 140.2 392.001 140.4C392.901 140.6 393.901 140.7 394.901 140.7L394.601 146.2C393.201 146.2 391.901 146.1 390.501 145.8C389.301 145.5 388.001 145 386.601 144.3C385.201 143.6 383.901 142.4 382.601 141C381.301 139.4 380.401 137.8 379.801 135.9C379.301 134.1 379.001 132.3 379.201 130.5C379.401 128.7 379.901 126.9 380.701 125.3C381.501 123.6 382.801 122.1 384.301 120.8C385.801 119.5 387.501 118.6 389.301 118C391.301 117.2 393.101 117 394.901 117.1ZM372.601 94.3002C373.701 94.4002 375.001 94.7002 376.301 95.2002C377.701 95.7002 379.101 96.5002 380.401 97.7002C381.701 98.8001 382.701 100 383.401 101.4C384.101 102.7 384.501 104.1 384.701 105.5C384.801 106.9 384.701 108.2 384.301 109.6C383.901 110.9 383.201 112.2 382.201 113.3L370.801 126.6L366.401 122.9L369.001 119.9C368.001 120.2 367.001 120.3 365.801 120.2C364.901 120.1 363.801 119.9 362.601 119.6C361.401 119.2 360.301 118.6 359.201 117.6C358.201 116.7 357.401 115.7 356.801 114.7C356.201 113.6 355.901 112.5 355.701 111.5C355.601 110.4 355.601 109.4 356.001 108.4C356.301 107.4 356.801 106.4 357.501 105.6C359.001 103.9 360.801 102.9 362.901 102.7C365.001 102.5 367.101 103.1 369.201 104.3L378.001 109.5C379.001 108.4 379.301 107.1 379.201 105.7C379.001 104.3 378.301 103 377.001 101.8C376.201 101.1 375.301 100.6 374.401 100.3C373.501 100 372.601 99.9002 371.801 99.8002C370.901 99.7002 370.001 99.8001 369.101 99.9001L368.701 94.6001C370.001 94.2001 371.301 94.1002 372.601 94.3002ZM344.401 95.5002L351.701 84.2001L347.301 81.4002L350.301 76.8002L353.001 78.5002C353.701 79.0002 354.401 79.1001 355.001 79.0002C355.601 78.8001 356.201 78.2002 356.801 77.3002L360.101 72.2001L364.501 75.0002L359.501 82.7001L364.801 86.1001L361.801 90.7002L356.501 87.3002L349.501 98.2002C347.901 100.6 348.301 102.6 350.601 104C350.901 104.2 351.301 104.4 351.701 104.6C352.101 104.7 352.401 104.8 352.701 104.9C353.101 105 353.401 105 353.701 105L350.701 109.6C350.301 109.5 349.901 109.4 349.401 109.3C349.001 109.2 348.601 109 348.101 108.8C347.601 108.6 347.101 108.3 346.601 108C344.301 106.5 342.901 104.7 342.501 102.6C342.201 100.3 342.801 98.0002 344.401 95.5002ZM326.301 65.0002L324.601 68.7001C325.501 68.2001 326.401 67.8001 327.501 67.5002C328.401 67.3001 329.401 67.2001 330.601 67.2001C331.801 67.2001 333.001 67.5002 334.401 68.1001C335.801 68.8001 337.001 69.6001 338.001 70.7001C339.001 71.8001 339.701 73.0002 340.201 74.3002C340.701 75.6002 340.801 77.1001 340.701 78.7001C340.601 80.3001 340.101 81.9001 339.301 83.6001L332.601 98.3002L327.401 95.9001L334.001 81.2001C334.801 79.4001 335.001 77.6001 334.401 76.1001C333.801 74.5002 332.701 73.4001 331.001 72.6001C330.001 72.1001 329.001 71.9002 328.001 71.9002C327.001 71.9002 326.101 72.0002 325.201 72.4002C324.301 72.7002 323.501 73.3001 322.801 74.0002C322.001 74.7002 321.401 75.6001 321.001 76.6001L314.801 90.2002L309.601 87.8002L321.001 62.7002L326.301 65.0002ZM281.401 65.9002C281.901 64.0002 282.701 62.2002 283.901 60.7002C285.101 59.2002 286.401 57.9002 288.001 57.0002C289.601 56.1002 291.301 55.5002 293.201 55.2002C295.101 54.9002 297.001 55.0002 299.001 55.5002C300.901 56.0002 302.701 56.8001 304.201 58.0002C305.701 59.2002 307.001 60.5002 307.901 62.1001C308.801 63.7001 309.401 65.4002 309.701 67.3002C310.001 69.2002 309.901 71.1001 309.401 73.0002C308.901 75.0002 308.101 76.7001 306.901 78.2001C305.701 79.7001 304.401 80.9002 302.801 81.9002C301.201 82.8002 299.501 83.4001 297.601 83.7001C295.701 84.0001 293.801 83.9002 291.901 83.4002C289.901 82.9002 288.201 82.1002 286.701 80.9002C285.201 79.7002 284.001 78.4002 283.001 76.8002C282.001 75.2002 281.501 73.5002 281.201 71.6001C280.801 69.7001 280.901 67.8002 281.401 65.9002ZM300.001 236.6C294.801 239.6 288.201 238.1 284.901 233.1L257.601 193C253.901 187.5 255.601 180 261.301 176.7L267.501 173.1C273.201 169.8 280.601 172.1 283.501 178L304.601 221.6C307.101 227.1 305.101 233.6 300.001 236.6ZM252.101 63.3001C252.201 61.3001 252.801 59.5002 253.601 57.8001C254.501 56.1001 255.601 54.7002 257.001 53.5002C258.401 52.3001 260.001 51.4002 261.801 50.8001C263.601 50.2001 265.501 50.0001 267.501 50.1001C269.501 50.3001 271.101 50.7002 272.501 51.4002C273.901 52.1002 275.001 52.8001 275.901 53.6001C277.001 54.5001 277.801 55.5002 278.501 56.5002L274.201 59.9002C273.701 59.2002 273.101 58.5002 272.401 57.9002C271.801 57.4002 271.001 56.9002 270.201 56.4002C269.301 55.9002 268.301 55.6002 267.001 55.5002C265.801 55.4002 264.601 55.5002 263.501 55.9002C262.401 56.3002 261.501 56.8001 260.601 57.5002C259.801 58.2002 259.101 59.1002 258.601 60.2002C258.101 61.3001 257.801 62.4002 257.701 63.7002C257.601 65.0002 257.701 66.2002 258.101 67.3002C258.501 68.4002 259.001 69.4002 259.701 70.3002C260.401 71.1002 261.301 71.8002 262.301 72.3002C263.301 72.8002 264.401 73.1001 265.701 73.2001C266.901 73.3001 268.001 73.2002 269.001 72.9002C270.001 72.6002 270.801 72.2001 271.501 71.7001C272.301 71.2001 273.101 70.6002 273.701 69.9002L277.401 73.9002C276.501 74.9002 275.401 75.8001 274.201 76.5002C273.101 77.2002 271.901 77.7001 270.401 78.2001C268.901 78.7001 267.201 78.8001 265.201 78.7001C263.201 78.5001 261.301 78.0002 259.601 77.1001C257.901 76.2001 256.501 75.1001 255.301 73.7001C254.101 72.3001 253.201 70.7002 252.601 68.9002C252.101 67.3002 251.901 65.4001 252.101 63.3001ZM207.401 62.5002C207.901 60.7002 208.601 59.0002 209.701 57.5002C210.801 56.0002 212.101 54.8001 213.701 53.8001C215.301 52.8001 217.101 52.1001 219.101 51.8001C221.101 51.5002 223.001 51.6002 224.801 52.0002C226.701 52.5002 228.301 53.2001 229.801 54.3001C231.301 55.4002 232.501 56.7001 233.501 58.3001C234.501 59.9001 235.201 61.7002 235.501 63.7002C235.801 65.7002 235.701 67.6001 235.301 69.5002C234.801 71.3001 234.101 73.0002 233.001 74.5002C231.901 76.0002 230.601 77.2001 228.901 78.2001C227.301 79.2001 225.501 79.9001 223.501 80.2001C221.501 80.5001 219.601 80.4002 217.701 80.0002C215.901 79.5002 214.201 78.8001 212.701 77.7001C211.201 76.6001 210.001 75.3001 209.001 73.7001C208.001 72.1001 207.301 70.3002 207.001 68.3002C206.801 66.3002 206.901 64.3001 207.401 62.5002ZM185.901 57.2002L184.101 51.4002L189.001 49.9002L191.701 58.7002L197.701 56.8001L199.301 62.0002L193.301 63.9002L197.101 76.2001C197.901 78.9001 199.701 79.9001 202.201 79.1001C202.601 79.0002 203.001 78.8001 203.301 78.6001C203.601 78.4001 203.901 78.2002 204.201 78.0002C204.501 77.8001 204.701 77.5002 204.901 77.3002L206.501 82.5002C206.201 82.8001 205.801 83.0002 205.501 83.3002C205.201 83.5002 204.801 83.7002 204.301 84.0002C203.801 84.2002 203.301 84.4001 202.701 84.6001C200.101 85.4001 197.801 85.3002 195.901 84.3002C194.001 83.3002 192.601 81.3002 191.701 78.4002L187.701 65.5002L182.801 67.0002L181.201 61.8001L184.201 60.8001C185.001 60.5002 185.601 60.1001 185.901 59.5002C186.301 59.1001 186.201 58.3001 185.901 57.2002ZM144.301 84.1001C144.801 82.3001 145.601 80.7001 146.801 79.2001C148.001 77.7001 149.401 76.4002 151.201 75.4002C152.901 74.4002 154.701 73.8001 156.701 73.6001C158.601 73.4001 160.401 73.5002 162.201 74.0002C164.001 74.5002 165.601 75.3001 167.101 76.5002C168.601 77.7002 169.901 79.1002 170.901 80.8002C171.901 82.6002 172.501 84.4002 172.701 86.3002C172.901 88.2002 172.801 90.0002 172.301 91.8002C171.801 93.6002 171.001 95.2002 169.801 96.7002C168.601 98.2002 167.201 99.5002 165.501 100.5C163.701 101.5 161.901 102.1 160.001 102.3C158.101 102.5 156.301 102.4 154.501 101.9C152.701 101.4 151.101 100.6 149.601 99.4001C148.101 98.2002 146.801 96.8002 145.801 95.0002C144.801 93.3002 144.201 91.5002 144.001 89.5002C143.601 87.7002 143.801 85.9001 144.301 84.1001ZM101.401 104.9C101.601 102.2 102.201 99.6001 103.501 97.1001C104.701 94.6001 106.401 92.3002 108.701 90.3002C110.701 88.5002 112.801 87.2002 114.901 86.4002C116.901 85.6002 118.801 85.2002 120.501 85.0002C122.401 84.8001 124.301 84.9001 126.101 85.2001L125.801 90.9001C124.501 90.6001 123.001 90.5002 121.501 90.7002C120.201 90.8001 118.801 91.2002 117.201 91.7002C115.601 92.3001 114.101 93.2001 112.501 94.6001C111.001 96.0001 109.801 97.6001 108.901 99.4001C108.101 101.2 107.601 103 107.501 105C107.401 106.9 107.701 108.8 108.301 110.7C108.901 112.6 110.001 114.3 111.301 115.8C112.701 117.3 114.301 118.5 116.101 119.4C117.901 120.2 119.701 120.7 121.701 120.8C123.601 120.9 125.501 120.6 127.401 120C129.301 119.4 131.001 118.3 132.501 117C133.801 115.8 134.901 114.6 135.601 113.3C136.301 112.1 136.801 110.9 137.201 109.9C137.601 108.7 137.801 107.5 137.801 106.4L133.801 101.9L127.601 107.5L123.801 103.2L134.701 93.4001L144.101 103.9C144.201 105.8 143.901 107.7 143.401 109.8C143.001 111.5 142.201 113.4 141.201 115.4C140.101 117.4 138.501 119.4 136.501 121.2C134.301 123.2 131.801 124.7 129.201 125.6C126.601 126.5 123.901 126.9 121.201 126.8C118.501 126.7 116.001 126 113.501 124.9C111.001 123.8 108.801 122.1 106.901 120C105.001 117.9 103.601 115.5 102.701 112.9C101.601 110.2 101.201 107.6 101.401 104.9ZM90.0012 361.2L85.4012 364.1L83.7012 361.4C83.2012 360.6 82.7012 360.2 82.1012 360.1C81.5012 360 80.7012 360.3 79.7012 360.9L74.6012 364.1L71.9012 359.7L79.7012 354.8L76.4012 349.4L81.0012 346.5L84.3012 351.9L95.3012 345.1C97.7012 343.6 98.3012 341.7 96.8012 339.4C96.6012 339 96.3012 338.7 96.1012 338.4C95.8012 338.1 95.6012 337.9 95.3012 337.7C95.0012 337.5 94.7012 337.3 94.4012 337.2L99.0012 334.3C99.3012 334.5 99.7012 334.8 100.001 335.1C100.301 335.4 100.601 335.7 101.001 336.1C101.301 336.5 101.701 337 102.001 337.5C103.401 339.8 103.901 342 103.401 344.1C102.901 346.2 101.301 348 98.8012 349.6L87.3012 356.7L90.0012 361.2ZM105.101 382.9C103.301 382.7 101.501 382.2 99.9012 381.4C98.2012 380.5 96.7012 379.3 95.4012 377.8C94.1012 376.3 93.3012 374.8 92.8012 373.4C92.3012 371.9 92.0012 370.6 91.9012 369.4C91.8012 368 91.9012 366.7 92.2012 365.5L97.7012 366.2C97.5012 367 97.5012 367.9 97.5012 368.8C97.6012 369.6 97.7012 370.5 98.0012 371.4C98.3012 372.4 98.8012 373.3 99.6012 374.2C100.401 375.1 101.301 375.9 102.301 376.4C103.301 376.9 104.401 377.2 105.501 377.3C106.601 377.4 107.701 377.2 108.801 376.9C109.901 376.5 111.001 375.9 112.001 375.1C113.001 374.3 113.801 373.3 114.301 372.3C114.901 371.3 115.201 370.2 115.301 369.1C115.401 368 115.301 366.9 114.901 365.8C114.601 364.7 114.001 363.7 113.201 362.8C112.401 361.9 111.601 361.2 110.601 360.7C109.701 360.2 108.801 359.9 108.001 359.7C107.101 359.5 106.101 359.4 105.101 359.4L105.401 353.9C106.801 353.8 108.101 354 109.501 354.3C110.701 354.6 112.001 355.1 113.401 355.8C114.801 356.5 116.101 357.6 117.401 359.1C118.701 360.7 119.601 362.3 120.201 364.2C120.701 366 121.001 367.8 120.801 369.6C120.601 371.4 120.101 373.2 119.301 374.8C118.401 376.5 117.201 378 115.701 379.3C114.201 380.6 112.501 381.5 110.701 382.1C108.901 382.7 106.901 383.1 105.101 382.9ZM127.401 405.7C126.301 405.6 125.001 405.3 123.701 404.8C122.301 404.3 120.901 403.5 119.501 402.3C118.201 401.2 117.201 399.9 116.501 398.6C115.801 397.3 115.301 395.9 115.201 394.5C115.101 393.1 115.201 391.8 115.601 390.4C116.001 389.1 116.701 387.8 117.701 386.7L129.101 373.4L133.401 377.1L130.801 380.1C131.801 379.8 132.801 379.7 134.001 379.8C135.001 379.9 136.001 380.1 137.201 380.4C138.401 380.8 139.501 381.4 140.601 382.4C141.601 383.3 142.501 384.3 143.001 385.4C143.601 386.5 143.901 387.6 144.101 388.6C144.201 389.7 144.201 390.7 143.901 391.8C143.601 392.8 143.101 393.8 142.401 394.6C140.901 396.3 139.101 397.3 137.001 397.5C134.901 397.7 132.801 397.2 130.701 395.9L121.901 390.7C120.901 391.8 120.601 393.1 120.701 394.5C120.901 395.9 121.601 397.2 122.901 398.3C123.701 399 124.601 399.5 125.501 399.8C126.401 400.1 127.301 400.2 128.101 400.3C129.001 400.4 129.901 400.3 130.801 400.2L131.201 405.5C130.001 405.8 128.701 405.9 127.401 405.7ZM155.601 404.5L148.301 415.9L152.701 418.7L149.701 423.3L147.001 421.6C146.301 421.1 145.601 421 145.001 421.1C144.401 421.3 143.801 421.9 143.101 422.8L139.801 427.9L135.401 425.1L140.401 417.4L135.101 414L138.101 409.4L143.401 412.8L150.401 401.9C152.001 399.5 151.601 397.6 149.401 396.1C149.001 395.9 148.701 395.7 148.301 395.5C147.901 395.4 147.601 395.3 147.301 395.2C146.901 395.1 146.601 395.1 146.301 395.1L149.301 390.5C149.701 390.6 150.101 390.7 150.601 390.8C151.001 390.9 151.401 391.1 151.901 391.3C152.401 391.5 152.901 391.8 153.401 392.2C155.701 393.7 157.101 395.5 157.501 397.6C157.801 399.7 157.201 402 155.601 404.5ZM173.701 435L175.401 431.3C174.501 431.8 173.601 432.2 172.501 432.5C171.601 432.7 170.601 432.8 169.401 432.8C168.201 432.8 167.001 432.5 165.601 431.9C164.201 431.3 163.001 430.4 162.001 429.3C161.001 428.2 160.301 427 159.801 425.7C159.301 424.4 159.201 422.9 159.301 421.3C159.401 419.7 159.901 418.1 160.701 416.4L167.401 401.7L172.601 404.1L165.901 418.7C165.101 420.6 164.901 422.3 165.501 423.8C166.101 425.4 167.201 426.5 168.901 427.3C169.901 427.8 170.901 428 171.901 428C172.901 428 173.801 427.9 174.701 427.5C175.601 427.2 176.401 426.6 177.101 425.9C177.801 425.2 178.501 424.3 178.901 423.3L185.101 409.7L190.301 412.1L178.901 437.2L173.701 435ZM218.601 434.1C218.101 436 217.301 437.8 216.101 439.3C214.901 440.8 213.601 442.1 212.001 443C210.401 443.9 208.701 444.5 206.801 444.8C204.901 445.1 203.001 445 201.001 444.5C199.101 444 197.301 443.2 195.801 442C194.301 440.8 193.001 439.5 192.101 437.9C191.201 436.3 190.601 434.6 190.301 432.7C190.001 430.8 190.101 428.9 190.601 427C191.101 425 191.901 423.3 193.101 421.8C194.301 420.3 195.601 419.1 197.201 418.1C198.801 417.1 200.501 416.6 202.401 416.3C204.301 416 206.201 416.1 208.101 416.6C210.101 417.1 211.801 417.9 213.301 419.1C214.801 420.2 216.001 421.6 217.001 423.2C218.001 424.8 218.501 426.5 218.801 428.4C219.201 430.3 219.101 432.2 218.601 434.1ZM247.901 436.7C247.701 438.7 247.201 440.5 246.301 442.2C245.401 443.9 244.301 445.3 242.901 446.5C241.501 447.7 239.901 448.6 238.101 449.2C236.301 449.8 234.401 450 232.401 449.9C230.401 449.7 228.801 449.3 227.401 448.6C226.001 447.9 224.901 447.2 224.001 446.4C223.001 445.5 222.101 444.5 221.401 443.5L225.701 440.1C226.201 440.8 226.801 441.5 227.501 442.1C228.101 442.6 228.901 443.1 229.701 443.6C230.601 444.1 231.601 444.4 232.901 444.4C234.101 444.5 235.301 444.4 236.401 444C237.501 443.6 238.401 443.1 239.301 442.4C240.101 441.7 240.801 440.8 241.301 439.7C241.801 438.6 242.101 437.5 242.201 436.2C242.301 434.9 242.201 433.7 241.801 432.6C241.501 431.5 240.901 430.5 240.201 429.7C239.501 428.9 238.601 428.2 237.601 427.7C236.601 427.2 235.501 426.9 234.201 426.8C233.001 426.7 231.901 426.8 230.901 427.1C229.901 427.4 229.101 427.8 228.401 428.3C227.601 428.8 226.801 429.4 226.201 430.1L222.501 426.1C223.401 425.1 224.501 424.2 225.701 423.5C226.801 422.8 228.001 422.3 229.501 421.8C231.001 421.3 232.701 421.2 234.701 421.3C236.701 421.5 238.601 422 240.301 422.9C242.001 423.8 243.401 424.9 244.601 426.3C245.801 427.7 246.701 429.3 247.301 431.1C247.901 432.7 248.101 434.6 247.901 436.7ZM292.601 437.5C292.101 439.4 291.401 441 290.301 442.5C289.201 444 287.901 445.2 286.301 446.2C284.701 447.2 282.901 447.9 280.901 448.2C278.901 448.5 277.001 448.4 275.201 448C273.401 447.5 271.701 446.8 270.201 445.7C268.701 444.6 267.501 443.3 266.501 441.7C265.501 440.1 264.801 438.3 264.501 436.3C264.201 434.3 264.301 432.4 264.701 430.5C265.201 428.7 265.901 427 267.001 425.5C268.101 424 269.401 422.8 271.001 421.8C272.601 420.8 274.401 420.1 276.401 419.8C278.401 419.5 280.301 419.6 282.201 420C284.001 420.5 285.701 421.2 287.201 422.3C288.701 423.4 289.901 424.7 290.901 426.3C291.901 427.9 292.601 429.7 292.901 431.7C293.201 433.7 293.101 435.7 292.601 437.5ZM314.101 442.8L315.901 448.6L311.001 450.1L308.301 441.3L302.301 443.2L300.701 438L306.701 436.1L302.901 423.7C302.001 421 300.301 420 297.801 420.8C297.401 420.9 297.001 421.1 296.701 421.3C296.301 421.5 296.001 421.7 295.801 421.9C295.501 422.1 295.301 422.4 295.101 422.6L293.501 417.4C293.801 417.1 294.201 416.9 294.501 416.6C294.801 416.4 295.201 416.1 295.701 415.9C296.201 415.7 296.701 415.5 297.301 415.3C299.901 414.5 302.201 414.6 304.101 415.6C306.001 416.6 307.401 418.6 308.301 421.5L312.301 434.4L317.201 432.9L318.801 438.1L315.801 439.1C315.001 439.4 314.401 439.8 314.101 440.4C313.801 441 313.801 441.7 314.101 442.8ZM321.801 310.4L295.801 336.4C291.601 340.6 284.801 340.9 280.301 337L149.601 224.3C144.601 220 144.301 212.3 149.001 207.6L193.001 163.6C197.701 158.9 205.401 159.2 209.701 164.2L322.401 294.8C326.301 299.4 326.001 306.1 321.801 310.4ZM315.401 271.9L309.301 189.5C308.801 183 314.001 177.4 320.501 177.4H343.001C349.501 177.4 354.701 183 354.201 189.5L348.101 271.9C347.701 277.8 342.801 282.3 336.901 282.3H326.601C320.801 282.3 315.901 277.7 315.401 271.9ZM355.701 415.9C355.201 417.7 354.401 419.3 353.201 420.8C352.001 422.3 350.601 423.6 348.801 424.6C347.101 425.6 345.201 426.2 343.301 426.4C341.401 426.6 339.601 426.5 337.801 426C336.001 425.5 334.401 424.7 332.901 423.5C331.401 422.3 330.101 420.9 329.201 419.1C328.201 417.3 327.601 415.5 327.401 413.6C327.201 411.7 327.301 409.9 327.801 408.1C328.301 406.3 329.101 404.7 330.301 403.2C331.501 401.7 332.901 400.4 334.601 399.4C336.401 398.4 338.201 397.8 340.101 397.6C342.001 397.4 343.801 397.5 345.501 398C347.301 398.5 348.901 399.3 350.401 400.5C351.901 401.6 353.201 403.1 354.201 404.9C355.201 406.6 355.801 408.4 356.001 410.4C356.401 412.3 356.201 414.1 355.701 415.9ZM398.601 395.1C398.401 397.8 397.801 400.4 396.601 402.9C395.401 405.4 393.601 407.7 391.401 409.7C389.301 411.5 387.301 412.8 385.201 413.6C383.201 414.4 381.301 414.8 379.601 415C377.701 415.2 375.801 415.1 374.001 414.9L374.301 409.2C375.601 409.5 377.101 409.6 378.601 409.4C379.901 409.3 381.301 408.9 382.901 408.4C384.501 407.8 386.001 406.9 387.601 405.5C389.101 404.1 390.301 402.5 391.201 400.7C392.101 398.9 392.501 397.1 392.601 395.1C392.701 393.2 392.401 391.3 391.801 389.4C391.101 387.5 390.101 385.8 388.801 384.3C387.501 382.8 385.801 381.6 384.001 380.7C382.201 379.9 380.401 379.4 378.401 379.3C376.501 379.2 374.601 379.5 372.701 380.1C370.801 380.8 369.101 381.8 367.601 383.1C366.301 384.3 365.201 385.5 364.501 386.8C363.801 388 363.301 389.2 362.901 390.2C362.501 391.4 362.301 392.6 362.301 393.7L366.301 398.2L372.501 392.6L376.301 396.9L365.401 406.7L356.001 396.2C355.901 394.3 356.201 392.3 356.701 390.3C357.101 388.6 357.901 386.7 358.901 384.7C360.001 382.7 361.501 380.7 363.601 378.9C365.901 376.9 368.301 375.4 371.001 374.5C373.601 373.6 376.301 373.2 379.001 373.3C381.701 373.4 384.201 374.1 386.701 375.2C389.201 376.3 391.401 378 393.301 380.1C395.201 382.2 396.601 384.6 397.501 387.2C398.401 389.8 398.801 392.4 398.601 395.1ZM419.101 153.5L415.701 148.1L404.701 154.9C402.301 156.4 401.701 158.3 403.201 160.6C403.401 161 403.701 161.3 403.901 161.6C404.201 161.9 404.401 162.1 404.701 162.3C405.001 162.5 405.301 162.7 405.601 162.8L401.001 165.7C400.701 165.5 400.301 165.2 400.001 164.9C399.701 164.6 399.401 164.3 399.001 163.9C398.701 163.5 398.301 163 398.001 162.5C396.501 160.2 396.101 158 396.601 155.9C397.101 153.8 398.701 152 401.201 150.4L412.701 143.3L410.001 138.9L414.601 136L416.301 138.7C416.801 139.5 417.301 139.9 417.901 140C418.501 140.1 419.301 139.8 420.301 139.2L425.401 136L428.101 140.4L420.301 145.3L423.601 150.7L419.101 153.5Z" fill="#28104E"/>
<path d="M349.299 407.8C348.699 406.7 347.899 405.7 346.999 405C346.099 404.3 345.099 403.7 343.999 403.4C342.899 403.1 341.899 403 340.699 403.1C339.599 403.2 338.499 403.6 337.399 404.2C336.299 404.8 335.399 405.6 334.699 406.5C333.999 407.4 333.499 408.4 333.199 409.4C332.899 410.5 332.899 411.6 332.999 412.7C333.199 413.9 333.599 415 334.199 416.2C334.799 417.3 335.599 418.3 336.499 419C337.399 419.7 338.399 420.3 339.499 420.6C340.599 420.9 341.599 421 342.799 420.9C343.899 420.8 344.999 420.4 346.099 419.8C347.199 419.2 348.099 418.4 348.799 417.5C349.499 416.6 349.999 415.6 350.299 414.6C350.599 413.5 350.599 412.4 350.499 411.3C350.399 410 349.999 408.9 349.299 407.8Z" fill="#28104E"/>
<path d="M135.3 392.5C136.3 392.5 137 392.1 137.6 391.4C138.2 390.6 138.5 389.7 138.4 388.6C138.3 387.5 137.7 386.5 136.6 385.5C135.8 384.8 134.9 384.3 133.9 384C132.9 383.7 131.9 383.6 130.9 383.7C129.9 383.8 128.9 384.1 128 384.6C127.1 385.1 126.2 385.8 125.5 386.6L124.9 387.3L131.9 391.5C133.2 392.2 134.3 392.6 135.3 392.5Z" fill="#28104E"/>
<path d="M212.2 425.9C211.6 425 210.9 424.1 210 423.4C209.1 422.7 208 422.2 206.8 421.9C205.6 421.6 204.5 421.5 203.3 421.7C202.2 421.9 201.1 422.2 200.2 422.8C199.3 423.4 198.5 424.1 197.8 425.1C197.1 426.1 196.6 427.2 196.3 428.4C196 429.7 195.9 430.9 196.1 432C196.3 433.2 196.6 434.2 197.2 435.2C197.8 436.1 198.5 437 199.4 437.7C200.3 438.4 201.4 438.9 202.6 439.2C203.8 439.5 204.9 439.6 206.1 439.4C207.2 439.2 208.3 438.9 209.2 438.3C210.1 437.7 210.9 437 211.6 436C212.3 435 212.8 433.9 213.1 432.7C213.4 431.4 213.5 430.2 213.3 429.1C213.1 427.9 212.7 426.9 212.2 425.9Z" fill="#28104E"/>
<path d="M362 136H138V350H362V136Z" fill="#28104E"/>
<path d="M362 155L348.714 168.286L337.201 179.799L326.932 190.068L323.922 193.078L302.127 214.873L299.116 217.877L291.858 225.142L274.324 242.676L326.932 295.284H277.284L249.481 267.481L224.682 292.274L221.672 295.284L199.884 317.073L196.873 320.083L186.604 330.352H137L150.28 317.073L161.799 305.554L172.068 295.284L175.078 292.274L196.873 270.479L199.877 267.475L207.142 260.21L224.676 242.676L231.941 235.411L242.21 225.142L249.475 217.877L267.009 200.343L274.274 193.078L277.284 190.068L299.073 168.28L302.083 165.269L312.352 155H362Z" fill="url(#paint0_linear_1174_430)"/>
<path d="M245.446 213.567L238.181 220.832L227.912 231.107L220.647 238.372L203.113 220.832H157.77V185.764H217.643L220.653 188.775L227.912 196.033L245.446 213.567Z" fill="url(#paint1_linear_1174_430)"/>
<defs>
<linearGradient id="paint0_linear_1174_430" x1="137" y1="242.676" x2="362" y2="242.676" gradientUnits="userSpaceOnUse">
<stop stop-color="#88009B"/>
<stop offset="0.16" stop-color="#A000B7"/>
<stop offset="0.39" stop-color="#BB00D6"/>
<stop offset="0.61" stop-color="#CF00ED"/>
<stop offset="0.82" stop-color="#DB00FA"/>
<stop offset="1" stop-color="#DF00FF"/>
</linearGradient>
<linearGradient id="paint1_linear_1174_430" x1="157.77" y1="212.068" x2="245.446" y2="212.068" gradientUnits="userSpaceOnUse">
<stop stop-color="#88009B"/>
<stop offset="0.16" stop-color="#A000B7"/>
<stop offset="0.39" stop-color="#BB00D6"/>
<stop offset="0.61" stop-color="#CF00ED"/>
<stop offset="0.82" stop-color="#DB00FA"/>
<stop offset="1" stop-color="#DF00FF"/>
</linearGradient>
</defs>
</svg>
