<svg width="1299" height="292" viewBox="0 0 1299 292" fill="none" xmlns="http://www.w3.org/2000/svg">
<g clip-path="url(#clip0_1172_421)">
<path d="M480.529 56.52V224.69H432.529V56.52H480.529Z" fill="#EAEAEA"/>
<path d="M0 69.6699H47.53V105.31L95.06 164.71L142.59 105.31V69.6699H190.12V117.2L95.06 224.13L0 117.2V69.6699Z" fill="#EAEAEA"/>
<path d="M213.881 69.6699H362.411C390.131 69.6699 403.994 81.3933 404.001 104.84V223.14H255.471C227.744 223.14 213.881 211.257 213.881 187.49V169.55C213.881 145.863 227.744 134.02 255.471 134.02H356.591L356.471 110.78C356.471 106.82 354.531 104.84 350.651 104.84H213.881V69.6699ZM267.231 169.55C263.351 169.55 261.411 171.61 261.411 175.73V181.55C261.411 185.51 263.391 187.49 267.351 187.49H356.591L356.471 169.67L267.231 169.55Z" fill="#EAEAEA"/>
<path d="M578.94 117.2L579.06 182.55C579.06 186.51 581 188.49 584.88 188.49H650.35V224.14H573.11C545.39 224.14 531.53 212.257 531.53 188.49V117.2H507.76V81.55H531.53V57.79H578.94V81.55H650.35V117.2H578.94Z" fill="#EAEAEA"/>
<path d="M721.639 223.14H674.109V69.6699H822.639C850.373 69.6699 864.236 81.5499 864.229 105.31V123.14H816.699V111.26C816.699 107.26 814.759 105.26 810.879 105.26H721.639V223.14Z" fill="#EAEAEA"/>
<path d="M888 51.8398H935.52V87.4798H888V51.8398ZM935.52 99.2498V224.15H888V99.3698L935.52 99.2498Z" fill="#EAEAEA"/>
<path d="M1298.28 0L1276.92 21.36L1258.41 39.87L1241.9 56.38L1237.06 61.22L1202.02 96.26L1197.18 101.09L1185.51 112.77L1157.32 140.96L1241.9 225.54H1162.08L1117.38 180.84L1077.51 220.7L1072.67 225.54L1037.64 260.57L1032.8 265.41L1016.29 281.92H936.539L957.889 260.57L976.409 242.05L992.919 225.54L997.759 220.7L1032.8 185.66L1037.63 180.83L1049.31 169.15L1077.5 140.96L1089.18 129.28L1105.69 112.77L1117.37 101.09L1145.56 72.9L1157.24 61.22L1162.08 56.38L1197.11 21.35L1201.95 16.51L1218.46 0H1298.28Z" fill="url(#paint0_linear_1172_421)"/>
<path d="M1110.89 94.16L1099.21 105.84L1082.7 122.36L1071.02 134.04L1042.83 105.84H969.93V49.46H1066.19L1071.03 54.3L1082.7 65.97L1110.89 94.16Z" fill="url(#paint1_linear_1172_421)"/>
</g>
<defs>
<linearGradient id="paint0_linear_1172_421" x1="936.539" y1="140.96" x2="1298.28" y2="140.96" gradientUnits="userSpaceOnUse">
<stop stop-color="#88009B"/>
<stop offset="0.16" stop-color="#A000B7"/>
<stop offset="0.39" stop-color="#BB00D6"/>
<stop offset="0.61" stop-color="#CF00ED"/>
<stop offset="0.82" stop-color="#DB00FA"/>
<stop offset="1" stop-color="#DF00FF"/>
</linearGradient>
<linearGradient id="paint1_linear_1172_421" x1="969.93" y1="91.75" x2="1110.89" y2="91.75" gradientUnits="userSpaceOnUse">
<stop stop-color="#88009B"/>
<stop offset="0.16" stop-color="#A000B7"/>
<stop offset="0.39" stop-color="#BB00D6"/>
<stop offset="0.61" stop-color="#CF00ED"/>
<stop offset="0.82" stop-color="#DB00FA"/>
<stop offset="1" stop-color="#DF00FF"/>
</linearGradient>
<clipPath id="clip0_1172_421">
<rect width="1298.28" height="291.63" fill="white"/>
</clipPath>
</defs>
</svg>
