<svg id="Layer_1" data-name="Layer 1" xmlns="http://www.w3.org/2000/svg" xmlns:xlink="http://www.w3.org/1999/xlink" viewBox="0 0 1298.28 291.63"><defs><style>.cls-1,.cls-4{fill:#28104e;}.cls-2{fill:url(#linear-gradient);}.cls-3{fill:url(#linear-gradient-2);}.cls-4{font-size:35px;font-family:Montserrat-SemiBoldItalic, Montserrat;font-weight:600;font-style:italic;}.cls-5{letter-spacing:-0.01em;}.cls-6{letter-spacing:-0.01em;}.cls-7{letter-spacing:0em;}.cls-8{letter-spacing:0em;}.cls-9{letter-spacing:0em;}.cls-10{letter-spacing:-0.01em;}.cls-11{letter-spacing:0em;}</style><linearGradient id="linear-gradient" x1="936.54" y1="140.96" x2="1298.28" y2="140.96" gradientUnits="userSpaceOnUse"><stop offset="0" stop-color="#9754cb"/><stop offset="0" stop-color="#964ec7"/><stop offset="0" stop-color="#933dbe"/><stop offset="0" stop-color="#8e20ad"/><stop offset="0" stop-color="#88009b"/><stop offset="0.16" stop-color="#a000b7"/><stop offset="0.39" stop-color="#bb00d6"/><stop offset="0.61" stop-color="#cf00ed"/><stop offset="0.82" stop-color="#db00fa"/><stop offset="1" stop-color="#df00ff"/></linearGradient><linearGradient id="linear-gradient-2" x1="969.93" y1="91.75" x2="1110.89" y2="91.75" xlink:href="#linear-gradient"/></defs><title>ValtrixArtboard 5</title><path class="cls-1" d="M480.53,56.52V224.69h-48V56.52Z"/><path class="cls-1" d="M0,69.67H47.53v35.64l47.53,59.4,47.53-59.4V69.67h47.53V117.2L95.06,224.13,0,117.2Z"/><path class="cls-1" d="M213.88,69.67H362.41q41.58,0,41.59,35.17v118.3H255.47q-41.59,0-41.59-35.65V169.55q0-35.53,41.59-35.53H356.59l-.12-23.24q0-5.94-5.82-5.94H213.88Zm53.35,99.88q-5.82,0-5.82,6.18v5.82q0,5.94,5.94,5.94h89.24l-.12-17.82Z"/><path class="cls-1" d="M578.94,117.2l.12,65.35q0,5.94,5.82,5.94h65.47v35.65H573.11q-41.58,0-41.58-35.65V117.2H507.76V81.55h23.77V57.79h47.41V81.55h71.41V117.2Z"/><path class="cls-1" d="M721.64,223.14H674.11V69.67H822.64q41.6,0,41.59,35.64v17.83H816.7V111.26c0-4-1.94-6-5.82-6H721.64Z"/><path class="cls-1" d="M888,51.84h47.52V87.48H888Zm47.52,47.41v124.9H888V99.37Z"/><polygon class="cls-2" points="1298.28 0 1276.92 21.36 1258.41 39.87 1241.9 56.38 1237.06 61.22 1202.02 96.26 1197.18 101.09 1185.51 112.77 1157.32 140.96 1241.9 225.54 1162.08 225.54 1117.38 180.84 1077.51 220.7 1072.67 225.54 1037.64 260.57 1032.8 265.41 1016.29 281.92 936.54 281.92 957.89 260.57 976.41 242.05 992.92 225.54 997.76 220.7 1032.8 185.66 1037.63 180.83 1049.31 169.15 1077.5 140.96 1089.18 129.28 1105.69 112.77 1117.37 101.09 1145.56 72.9 1157.24 61.22 1162.08 56.38 1197.11 21.35 1201.95 16.51 1218.46 0 1298.28 0"/><polygon class="cls-3" points="1110.89 94.16 1099.21 105.84 1082.7 122.36 1071.02 134.04 1042.83 105.84 969.93 105.84 969.93 49.46 1066.19 49.46 1071.03 54.3 1082.7 65.97 1110.89 94.16"/><text class="cls-4" transform="translate(430.85 282.35)">C<tspan class="cls-5" x="25.44" y="0">r</tspan><tspan x="39.79" y="0">eati</tspan><tspan class="cls-6" x="110.42" y="0">v</tspan><tspan x="130.13" y="0">e Design </tspan><tspan class="cls-7" x="298.09" y="0">A</tspan><tspan class="cls-8" x="324.13" y="0">ge</tspan><tspan class="cls-9" x="370.08" y="0">n</tspan><tspan class="cls-10" x="394.23" y="0">c</tspan><tspan class="cls-11" x="414.32" y="0">y</tspan></text></svg>