<svg width="362" height="282" viewBox="0 0 362 282" fill="none" xmlns="http://www.w3.org/2000/svg">
<path d="M361.74 0L340.38 21.36L321.87 39.87L305.36 56.38L300.52 61.22L265.48 96.26L260.64 101.09L248.97 112.77L220.78 140.96L305.36 225.54H225.54L180.84 180.84L140.97 220.7L136.13 225.54L101.1 260.57L96.2601 265.41L79.75 281.92H0L21.35 260.57L39.87 242.05L56.38 225.54L61.22 220.7L96.2601 185.66L101.09 180.83L112.77 169.15L140.96 140.96L152.64 129.28L169.15 112.77L180.83 101.09L209.02 72.9L220.7 61.22L225.54 56.38L260.57 21.35L265.41 16.51L281.92 0H361.74Z" fill="url(#paint0_linear_1168_413)"/>
<path d="M174.351 94.16L162.671 105.84L146.161 122.36L134.481 134.04L106.291 105.84H33.3906V49.46H129.651L134.491 54.3L146.161 65.97L174.351 94.16Z" fill="url(#paint1_linear_1168_413)"/>
<defs>
<linearGradient id="paint0_linear_1168_413" x1="0" y1="140.96" x2="361.74" y2="140.96" gradientUnits="userSpaceOnUse">
<stop stop-color="#88009B"/>
<stop offset="0.16" stop-color="#A000B7"/>
<stop offset="0.39" stop-color="#BB00D6"/>
<stop offset="0.61" stop-color="#CF00ED"/>
<stop offset="0.82" stop-color="#DB00FA"/>
<stop offset="1" stop-color="#DF00FF"/>
</linearGradient>
<linearGradient id="paint1_linear_1168_413" x1="33.3906" y1="91.75" x2="174.351" y2="91.75" gradientUnits="userSpaceOnUse">
<stop stop-color="#88009B"/>
<stop offset="0.16" stop-color="#A000B7"/>
<stop offset="0.39" stop-color="#BB00D6"/>
<stop offset="0.61" stop-color="#CF00ED"/>
<stop offset="0.82" stop-color="#DB00FA"/>
<stop offset="1" stop-color="#DF00FF"/>
</linearGradient>
</defs>
</svg>
